# xmcd
#
# Track frame offsets: 
#        150
#        14678
#        33066
#        48710
#        66551
#        80812
#        95228
#        110071
#        125707
#        142490
#        155994
#        171249
#
# Disc length: 2486 seconds
#
# Revision: 0
# Processed by: cddbd v1.5.2PL0 Copyright (c) Steve Scherf et al.
# Submitted via: ExactAudioCopy v1.3
#
DISCID=c609b40c
DTITLE=Tourist LeMC - We Begrijpen Mekaar
DYEAR=2018
DGENRE=Pop
TTITLE0=Barbaren
TTITLE1=Oprechte Leugens feat. Alice On The Roof
TTITLE2=Coureuge Viva
TTITLE3=Zoete Blasfemie
TTITLE4=Muziek Van Het Hart
TTITLE5=Spiegel feat. Raymond Van Het Groenwoud
TTITLE6=Tramontane
TTITLE7=We Begrijpen Mekaar
TTITLE8=OLV
TTITLE9=Welkom
TTITLE10=Boussa
TTITLE11=Alles Komt Terug
EXTD=
EXTT0=
EXTT1=
EXTT2=
EXTT3=
EXTT4=
EXTT5=
EXTT6=
EXTT7=
EXTT8=
EXTT9=
EXTT10=
EXTT11=
PLAYORDER=
